<?xml version="1.0" encoding="UTF-8"?>
<svg version="1.1" xmlns="http://www.w3.org/2000/svg" width="1024" height="1024">
<path d="M0 0 C337.92 0 675.84 0 1024 0 C1024 337.92 1024 675.84 1024 1024 C686.08 1024 348.16 1024 0 1024 C0 686.08 0 348.16 0 0 Z " fill="#FCFCFC" transform="translate(0,0)"/>
<path d="M0 0 C2.75170282 2.88581115 3.37448674 4.87844522 3.36914349 8.81820297 C3.37511663 9.79106774 3.38108978 10.76393251 3.38724393 11.76627803 C3.3785054 12.83241934 3.36976688 13.89856065 3.36076355 14.99700928 C3.36332682 16.13157098 3.3658901 17.26613268 3.36853105 18.43507504 C3.37348694 22.2508049 3.35694575 26.06614231 3.34057617 29.88183594 C3.33806129 32.61145784 3.34007206 35.34107198 3.34190369 38.07069397 C3.34347737 43.95456787 3.33405825 49.83834204 3.31719017 55.72219086 C3.29281762 64.22925047 3.28499669 72.73626182 3.2812262 81.24335256 C3.27465897 95.04523765 3.25469045 108.84706957 3.22631836 122.64892578 C3.19878481 136.05680068 3.17754778 149.46466114 3.16479492 162.87255859 C3.16400675 163.69890547 3.16321858 164.52525236 3.16240653 165.37664005 C3.15849144 169.52214516 3.15470031 173.66765037 3.15097082 177.81315565 C3.11986646 212.2088087 3.06702328 246.60439862 3 281 C3.61520508 280.97905273 4.23041016 280.95810547 4.86425781 280.93652344 C7.65933809 280.85322983 10.45415715 280.80129987 13.25 280.75 C14.21808594 280.71648437 15.18617188 280.68296875 16.18359375 280.6484375 C23.37783066 280.54920665 23.37783066 280.54920665 26.609375 282.890625 C30.21732283 288.36335485 29.26483854 294.4226869 29.3125 300.8125 C29.34150391 302.09705078 29.37050781 303.38160156 29.40039062 304.70507812 C29.40876953 305.94322266 29.41714844 307.18136719 29.42578125 308.45703125 C29.44765503 310.1582312 29.44765503 310.1582312 29.4699707 311.89379883 C28.89931468 315.66546461 27.63476084 317.29595982 25 320 C22.39441361 321.30279319 20.50386954 321.12415112 17.58455467 321.12304783 C16.42756864 321.12503888 15.27058261 321.12702993 14.07853639 321.12908131 C12.79645819 321.12616847 11.51437999 321.12325563 10.19345093 321.12025452 C8.82641569 321.12069024 7.45938054 321.12156515 6.09234583 321.12284368 C2.32293301 321.12508852 -1.44645161 321.1210675 -5.21586084 321.11606562 C-9.27584999 321.11176116 -13.33583746 321.11320754 -17.39582825 321.1139679 C-24.43432621 321.11449313 -31.47281494 321.11134635 -38.51131058 321.10573006 C-48.68788786 321.09761503 -58.86446066 321.09499983 -69.04104082 321.09374207 C-85.55047506 321.09155155 -102.05990437 321.08489148 -118.56933594 321.07543945 C-134.61002579 321.06626532 -150.6507143 321.05918449 -166.69140625 321.05493164 C-167.67957634 321.05466892 -168.66774643 321.05440619 -169.68586107 321.05413551 C-174.64304737 321.0528305 -179.60023369 321.05156679 -184.55742002 321.05032361 C-225.70495011 321.03995101 -266.85247477 321.0223327 -308 321 C-306.41405877 317.65661713 -304.60764951 315.32655534 -302.0625 312.625 C-297.58944387 307.64862357 -294.18321827 303.31800315 -294.453125 296.2734375 C-296.17939913 289.09706931 -301.78396265 282.7234233 -307.03125 277.73046875 C-308.99657563 274.21982659 -307.09947911 270.35342367 -306.07421875 266.7109375 C-302.4663227 258.03166081 -302.4663227 258.03166081 -297.80664062 256.08251953 C-293.48056006 254.9235676 -289.15502102 254.33394375 -284.71484375 253.80859375 C-280.25400156 253.19376144 -277.39936097 252.10961331 -274 249 C-270.62092793 242.92625686 -270.54697499 237.47973446 -270.56640625 230.625 C-270.5611644 229.5417041 -270.55592255 228.4584082 -270.55052185 227.34228516 C-270.54411911 225.05957901 -270.5454159 222.77683978 -270.55395508 220.49414062 C-270.56247281 217.01111934 -270.53366465 213.52973488 -270.50195312 210.046875 C-270.50034107 207.82291716 -270.50091873 205.59895642 -270.50390625 203.375 C-270.48705528 201.82159912 -270.48705528 201.82159912 -270.46986389 200.23681641 C-270.53020149 193.94693778 -271.22977937 190.10178533 -275 185 C-280.06591218 181.29941293 -284.61030386 180.23576765 -290.75 179.4375 C-298.38153227 178.42648504 -298.38153227 178.42648504 -300.875 176.70703125 C-303.94146241 172.05410045 -305.8530911 167.05672457 -306.25 161.5 C-304.63587962 156.98046293 -302.03561031 153.93396107 -298.91015625 150.33203125 C-294.77228935 145.28027964 -294.55503493 141.33561952 -294.6953125 134.8984375 C-295.5856383 126.42892792 -304.63288904 120.02785028 -310.76171875 114.76171875 C-315.84241607 110.34251524 -320.4628204 105.49758808 -325.08789062 100.609375 C-330.29939807 95.26112246 -334.32736534 92.40807052 -341.9375 91.5625 C-348.85816816 91.85586166 -354.47924191 96.15259295 -359.9453125 100.046875 C-363.83800344 101.85260996 -367.14246228 101.26984707 -371.140625 100.01171875 C-372.16671875 99.57472656 -373.1928125 99.13773438 -374.25 98.6875 C-375.28640625 98.25824219 -376.3228125 97.82898438 -377.390625 97.38671875 C-380 96 -380 96 -382 93 C-382.43896484 90.93457031 -382.43896484 90.93457031 -382.7109375 88.578125 C-382.82179688 87.71703125 -382.93265625 86.8559375 -383.046875 85.96875 C-383.26365528 84.17257053 -383.47470216 82.37568874 -383.6796875 80.578125 C-384.43676224 74.79682696 -385.6722712 70.82077822 -389 66 C-393.42318157 62.68261382 -397.48805703 61.91301567 -402.9140625 61.71875 C-404.30238281 61.66267578 -404.30238281 61.66267578 -405.71875 61.60546875 C-407.66405225 61.5348731 -409.60936487 61.46456286 -411.5546875 61.39453125 C-412.93914062 61.33845703 -412.93914062 61.33845703 -414.3515625 61.28125 C-415.19541504 61.25095703 -416.03926758 61.22066406 -416.90869141 61.18945312 C-419 61 -419 61 -421 60 C-421.75208194 47.27728045 -421.75208194 47.27728045 -418.48046875 42.62109375 C-411.40286075 34.87120636 -401.95946395 29.65160418 -393.109375 24.18359375 C-389.64461779 22.04175595 -386.22491589 19.84568383 -382.828125 17.59765625 C-381.98757568 17.04754883 -381.14702637 16.49744141 -380.28100586 15.93066406 C-378.67812079 14.87993493 -377.08209438 13.81863964 -375.49438477 12.74511719 C-370.60365541 9.57014134 -366.90596429 7.86903353 -361 8 C-358.80249023 9.31958008 -358.80249023 9.31958008 -357 12 C-356.39759523 15.65170288 -356.4429919 19.27460791 -356.4609375 22.96875 C-356.44914459 24.04120972 -356.43735168 25.11366943 -356.42520142 26.21862793 C-356.38988639 29.64589932 -356.38076605 33.07256139 -356.375 36.5 C-356.35866372 39.92725559 -356.33663175 43.35423788 -356.30337524 46.78137207 C-356.28373227 48.91370607 -356.27441175 51.04616538 -356.27645874 53.17858887 C-356.26949982 54.14639282 -356.26254089 55.11419678 -356.25537109 56.11132812 C-356.25411224 56.9608606 -356.25285339 57.81039307 -356.2515564 58.68566895 C-355.97464828 61.23323709 -355.36360429 62.83975602 -354 65 C-351.17608663 66.41195669 -349.13708851 66.24232257 -346 66 C-343.23645659 64.80787304 -343.23645659 64.80787304 -340.5703125 63.02734375 C-339.54019043 62.38273193 -338.51006836 61.73812012 -337.44873047 61.07397461 C-336.35189941 60.36893799 -335.25506836 59.66390137 -334.125 58.9375 C-332.96451371 58.20517758 -331.80320407 57.4741584 -330.64111328 56.74438477 C-328.25179828 55.24134109 -325.86721641 53.73119913 -323.48632812 52.21484375 C-319.28166906 49.53899338 -315.05085472 46.90562654 -310.81982422 44.27172852 C-307.85349653 42.42410624 -304.89101147 40.57047384 -301.9296875 38.71484375 C-294.97287375 34.35565334 -288.01034136 30.00563422 -281.04785156 25.65551758 C-276.34244775 22.71522197 -271.63775914 19.77380345 -266.93560791 16.82830811 C-265.25021611 15.77262842 -263.56456302 14.71736592 -261.87890625 13.66210938 C-259.74824011 12.32820494 -257.61801462 10.99359634 -255.48828125 9.65820312 C-254.53566406 9.06201172 -253.58304688 8.46582031 -252.6015625 7.8515625 C-251.75932129 7.32385254 -250.91708008 6.79614258 -250.04931641 6.25244141 C-246.4550003 4.05577216 -244.2624439 3.57375561 -240 4 C-237.34828722 6.05118288 -236.14462218 7.24367103 -235.50793457 10.573349 C-235.51111694 11.54421951 -235.51429932 12.51509003 -235.51757812 13.51538086 C-235.51077026 14.62010239 -235.5039624 15.72482391 -235.49694824 16.86302185 C-235.50826782 18.05162308 -235.5195874 19.2402243 -235.53125 20.46484375 C-235.52420044 21.69030411 -235.51715088 22.91576447 -235.5098877 24.17835999 C-235.48033272 29.42459814 -235.497046 34.670468 -235.50927734 39.91674805 C-235.51165413 43.74550718 -235.49075763 47.57365977 -235.46875 51.40234375 C-235.48006958 52.58892075 -235.49138916 53.77549774 -235.50305176 54.99803162 C-235.49409408 61.39966284 -235.49409408 61.39966284 -233.23461914 67.27929688 C-231.18064178 69.11496739 -231.18064178 69.11496739 -228.93725586 69.44750977 C-222.82267123 68.54556188 -218.62209696 66.41625202 -213.5625 62.9375 C-211.89855589 61.84029069 -210.23310481 60.74536441 -208.56640625 59.65234375 C-207.6758252 59.06308105 -206.78524414 58.47381836 -205.86767578 57.86669922 C-200.6466245 54.46808198 -195.31649042 51.24640401 -190 48 C-181.67584427 42.89373174 -173.38138461 37.74629913 -165.13427734 32.51660156 C-156.62093951 27.11879088 -148.0749574 21.77375794 -139.515625 16.44921875 C-136.25551673 14.41912078 -133.01195351 12.37016604 -129.796875 10.26953125 C-129.20310059 9.88700195 -128.60932617 9.50447266 -127.99755859 9.11035156 C-126.52111708 8.1568627 -125.05304109 7.19045148 -123.5859375 6.22265625 C-120.4078591 4.72003006 -118.46858166 4.38705886 -115 5 C-110.85864174 9.61056111 -111.55924556 15.26756694 -111.55859375 21.1015625 C-111.53878197 22.71168716 -111.53878197 22.71168716 -111.51856995 24.3543396 C-111.47771632 27.77791975 -111.45600816 31.20123135 -111.4375 34.625 C-111.41372816 38.05582857 -111.38565138 41.48640366 -111.34571838 44.91708374 C-111.32132603 47.05047771 -111.30649628 49.1840065 -111.30210876 51.3175354 C-111.28682884 52.76451309 -111.28682884 52.76451309 -111.27124023 54.24072266 C-111.26696518 55.08945953 -111.26269012 55.93819641 -111.25828552 56.81265259 C-111.13315662 59.29134119 -111.13315662 59.29134119 -109 62 C-103.02963778 61.59185123 -99.16155557 58.89506786 -94.3125 55.6875 C-92.613477 54.58823906 -90.91425255 53.48928942 -89.21484375 52.390625 C-87.91716064 51.54467773 -87.91716064 51.54467773 -86.59326172 50.68164062 C-82.5471184 48.05785648 -78.45927923 45.50132341 -74.375 42.9375 C-65.53689831 37.36266962 -56.75983205 31.69677869 -48 26 C-46.39847783 24.95957334 -44.796914 23.91921079 -43.1953125 22.87890625 C-36.24583809 18.36375719 -29.29766843 13.84664101 -22.35546875 9.3203125 C-21.43805908 8.7226709 -20.52064941 8.1250293 -19.57543945 7.50927734 C-17.80647488 6.35683555 -16.03806185 5.20354661 -14.27026367 4.04931641 C-13.47724854 3.53288574 -12.6842334 3.01645508 -11.8671875 2.484375 C-11.16706543 2.02772461 -10.46694336 1.57107422 -9.74560547 1.10058594 C-6.08597366 -1.20677353 -4.23254936 -1.12292126 0 0 Z " fill="#1E8BE8" transform="translate(782,441)"/>
<path d="M0 0 C1.08849747 0.00233139 2.17699493 0.00466278 3.29847717 0.00706482 C5.59742074 0.01679585 7.89634055 0.03856789 10.19506836 0.0715332 C13.70658035 0.12086789 17.21668858 0.13301121 20.72851562 0.13867188 C22.96485859 0.15276161 25.20118944 0.16896735 27.4375 0.1875 C29.00805397 0.19554405 29.00805397 0.19554405 30.6103363 0.20375061 C40.22309869 0.35986181 40.22309869 0.35986181 44.78515625 2.55859375 C46.9627052 5.82491718 47.03909274 6.95057584 47.1875 10.75 C47.65248961 22.05416961 47.65248961 22.05416961 52.79833984 31.64746094 C58.01880664 35.30443768 63.78712185 37.51293702 69.78515625 39.55859375 C70.44515625 39.88859375 71.10515625 40.21859375 71.78515625 40.55859375 C75.92824216 41.12057077 77.52983518 40.72120717 81.109375 38.44140625 C82.2422475 37.53669084 83.36322405 36.6169052 84.47265625 35.68359375 C85.6011462 34.76901734 86.7300387 33.85493737 87.859375 32.94140625 C88.82488281 32.15507813 89.79039062 31.36875 90.78515625 30.55859375 C94.71656655 27.93765355 96.10302479 27.74107873 100.78515625 28.55859375 C108.71629698 34.4769141 115.61618608 42.23373587 122.59301758 49.23608398 C124.3727038 51.02121797 126.1577898 52.80083087 127.94335938 54.58007812 C129.07974857 55.71712671 130.21582828 56.8544847 131.3515625 57.9921875 C131.88374893 58.5223497 132.41593536 59.0525119 132.96424866 59.59873962 C137.56688242 64.23109199 137.56688242 64.23109199 138.21484375 68.171875 C137.58837712 73.10957107 134.97467095 75.9417477 131.91015625 79.74609375 C130.80829471 81.15601635 129.7067208 82.56616379 128.60546875 83.9765625 C127.86707764 84.90118286 127.86707764 84.90118286 127.11376953 85.84448242 C124.51944897 88.91155177 124.51944897 88.91155177 123.9140625 92.703125 C125.14470081 96.73719048 126.90247784 100.44788075 128.72265625 104.24609375 C129.2630957 105.40334961 129.2630957 105.40334961 129.81445312 106.58398438 C131.81508352 110.8970494 131.81508352 110.8970494 134.78515625 114.55859375 C136.72594062 115.15353089 136.72594062 115.15353089 138.9609375 115.5234375 C139.78916016 115.68392578 140.61738281 115.84441406 141.47070312 116.00976562 C143.2099764 116.33175748 144.94955707 116.65209367 146.68945312 116.97070312 C155.10890482 118.60763758 155.10890482 118.60763758 158.78515625 121.55859375 C160.60538226 124.52901271 161.0431634 126.78835479 161.07568359 130.24780273 C161.0884433 131.17233749 161.101203 132.09687225 161.11434937 133.04942322 C161.11768784 134.53702904 161.11768784 134.53702904 161.12109375 136.0546875 C161.12775055 137.08038345 161.13440735 138.10607941 161.14126587 139.16285706 C161.15138438 141.33063973 161.15608314 143.4984535 161.15576172 145.66625977 C161.16013567 148.98050261 161.19646687 152.29341452 161.234375 155.60742188 C161.24024315 157.7148392 161.24421255 159.82226284 161.24609375 161.9296875 C161.26046478 162.91940048 161.27483582 163.90911346 161.28964233 164.92881775 C161.26119997 169.21688891 161.17241855 171.86819517 159.04541016 175.66015625 C156.56624179 177.74246487 155.34570329 178.26450349 152.16015625 178.5625 C150.85304688 178.71428711 150.85304688 178.71428711 149.51953125 178.86914062 C148.6171875 178.95228516 147.71484375 179.03542969 146.78515625 179.12109375 C140.30907944 179.58329424 140.30907944 179.58329424 134.4609375 182.0546875 C131.9020818 185.87805931 129.92154445 189.89719962 127.97265625 194.05859375 C127.55306641 194.91324219 127.13347656 195.76789063 126.70117188 196.6484375 C126.30994141 197.47472656 125.91871094 198.30101562 125.515625 199.15234375 C125.15879639 199.90193359 124.80196777 200.65152344 124.43432617 201.42382812 C123.65636354 203.98212269 123.80603294 205.08805802 124.78515625 207.55859375 C125.99235389 209.49518933 125.99235389 209.49518933 127.5078125 211.38671875 C128.04599609 212.10472656 128.58417969 212.82273437 129.13867188 213.5625 C130.27192305 215.05191583 131.41509759 216.53383659 132.56835938 218.0078125 C135.19119409 221.54061028 137.16917332 224.3387584 137.37890625 228.82421875 C136.730771 232.90064834 136.11178559 234.20670917 133.22265625 237.05859375 C132.40539062 237.89261719 131.588125 238.72664062 130.74609375 239.5859375 C130.28041992 240.0485498 129.81474609 240.51116211 129.33496094 240.98779297 C127.57970881 242.7668245 125.88866785 244.59588446 124.19921875 246.4375 C104.19221354 268.21419807 104.19221354 268.21419807 97.5390625 268.88671875 C92.97476237 268.48775807 91.23955279 267.18142097 87.72265625 264.30859375 C85.74754744 262.72020138 83.76839512 261.13682337 81.78515625 259.55859375 C80.81707031 258.78 79.84898437 258.00140625 78.8515625 257.19921875 C74.85844995 255.06277637 73.1278558 255.40302563 68.78515625 256.55859375 C62.71625517 258.68595927 55.23739031 261.4288476 51.1875 266.59765625 C50.3820412 268.94801143 50.06011636 271.08761886 49.78515625 273.55859375 C49.30272627 275.97882909 48.80155422 278.39537786 48.28515625 280.80859375 C48.06859375 281.96875 47.85203125 283.12890625 47.62890625 284.32421875 C46.60594562 288.24556784 45.53839301 291.46558119 41.9861908 293.68011475 C39.471411 294.68381605 37.61566913 294.81230142 34.91235352 294.81738281 C33.94777725 294.82368713 32.98320099 294.82999146 31.98939514 294.83648682 C30.95391037 294.83243835 29.9184256 294.82838989 28.8515625 294.82421875 C27.78147446 294.8261322 26.71138641 294.82804565 25.60887146 294.83001709 C23.34691126 294.83137744 21.08494322 294.82769149 18.82299805 294.81933594 C15.3642416 294.80864501 11.9060058 294.81923113 8.44726562 294.83203125 C6.24869677 294.83070942 4.05012824 294.82814655 1.8515625 294.82421875 C0.81810196 294.82826721 -0.21535858 294.83231567 -1.28013611 294.83648682 C-2.73172874 294.82703033 -2.73172874 294.82703033 -4.21264648 294.81738281 C-5.05995834 294.81579163 -5.9072702 294.81420044 -6.78025818 294.81256104 C-9.6027468 294.51812909 -11.68715638 293.8461921 -14.21484375 292.55859375 C-17.14208807 287.67562004 -17.39072841 283.83796257 -17.3762207 278.23583984 C-17.2928016 270.47578281 -17.2928016 270.47578281 -20.78613281 263.88916016 C-24.64891148 261.21170717 -28.8877138 259.5567535 -33.35400391 258.15527344 C-35.21484375 257.55859375 -35.21484375 257.55859375 -37.9140625 256.31640625 C-40.94348737 255.31859908 -42.19982521 255.4638286 -45.21484375 256.55859375 C-47.89879781 258.237641 -50.39545835 260.1279759 -52.90234375 262.05859375 C-54.2387392 263.07012662 -55.57594168 264.08059442 -56.9140625 265.08984375 C-57.50018311 265.53908203 -58.08630371 265.98832031 -58.69018555 266.45117188 C-62.24078845 269.0301206 -64.86301635 269.12011987 -69.21484375 268.55859375 C-72.2322118 266.60541572 -74.65657688 264.06867409 -77.21484375 261.55859375 C-79.10819243 259.84750708 -81.0042328 258.13939609 -82.90234375 256.43359375 C-87.42467272 252.29109103 -91.85086747 248.05492394 -96.21484375 243.74609375 C-96.75455811 243.21935059 -97.29427246 242.69260742 -97.8503418 242.14990234 C-102.23171406 237.77886838 -105.79187865 234.02130177 -106.875 227.71484375 C-106.54496217 221.48704463 -101.68091464 217.34307666 -97.74804688 212.9140625 C-94.46700796 209.13675799 -94.46700796 209.13675799 -92.92797852 204.50537109 C-93.38437665 199.73828965 -95.29769401 195.49857498 -97.27734375 191.18359375 C-100.21484375 184.77083631 -100.21484375 184.77083631 -100.21484375 182.55859375 C-100.88016113 182.48866211 -101.54547852 182.41873047 -102.23095703 182.34667969 C-105.26936401 182.0176027 -108.30433189 181.66334634 -111.33984375 181.30859375 C-112.3865625 181.19902344 -113.43328125 181.08945312 -114.51171875 180.9765625 C-120.46874504 180.26021124 -124.63153765 179.54005158 -129.21484375 175.55859375 C-130.44214686 173.10398753 -130.35483599 171.47395252 -130.37597656 168.72924805 C-130.38558411 167.72447922 -130.39519165 166.71971039 -130.40509033 165.68449402 C-130.40934021 164.59493912 -130.41359009 163.50538422 -130.41796875 162.3828125 C-130.42366882 161.26550247 -130.4293689 160.14819244 -130.4352417 158.99702454 C-130.44470117 156.62896677 -130.45122942 154.26089579 -130.45507812 151.89282227 C-130.46477595 148.27141289 -130.49578794 144.65057276 -130.52734375 141.02929688 C-130.53387442 138.73047213 -130.53912464 136.43164331 -130.54296875 134.1328125 C-130.55531555 133.04933029 -130.56766235 131.96584808 -130.5803833 130.84953308 C-130.55197337 121.2483582 -130.55197337 121.2483582 -127.21484375 117.55859375 C-121.5798303 113.94100481 -114.07804116 113.69705792 -107.57421875 113.18164062 C-103.12754284 112.66099357 -103.12754284 112.66099357 -99.8605957 109.84179688 C-98.82026508 107.78100684 -97.99255637 105.7307269 -97.21484375 103.55859375 C-96.78558594 102.64851562 -96.35632813 101.7384375 -95.9140625 100.80078125 C-95.58019531 100.01960937 -95.24632812 99.2384375 -94.90234375 98.43359375 C-94.38220703 97.25410156 -94.38220703 97.25410156 -93.8515625 96.05078125 C-92.99340655 92.69186411 -93.18552072 90.89572435 -94.21484375 87.55859375 C-96.52679713 84.01046823 -99.28088027 80.80983736 -101.99804688 77.56835938 C-104.65368212 74.24323625 -106.10576589 72.19591033 -106.8359375 67.9296875 C-105.52296956 60.80332692 -100.08376258 56.14219549 -95.11328125 51.2265625 C-94.43560699 50.54934647 -93.75793274 49.87213043 -93.0597229 49.1743927 C-91.63495897 47.75263581 -90.20777949 46.33329588 -88.77832031 44.91625977 C-86.58466573 42.74095906 -84.39921619 40.55766442 -82.21484375 38.37304688 C-80.82729561 36.99041088 -79.43929076 35.60823303 -78.05078125 34.2265625 C-77.39556488 33.57245895 -76.74034851 32.91835541 -76.0652771 32.24443054 C-75.45769562 31.64322891 -74.85011414 31.04202728 -74.22412109 30.42260742 C-73.68991547 29.89221359 -73.15570984 29.36181976 -72.60531616 28.81535339 C-70.57039123 26.97611407 -69.27350161 26.56644895 -66.53125 26.19921875 C-62.05267348 26.68452975 -59.65228841 28.60874478 -56.15234375 31.30859375 C-55.55357422 31.75203125 -54.95480469 32.19546875 -54.33789062 32.65234375 C-51.64405173 34.65870788 -49.1152928 36.65160929 -46.65625 38.94921875 C-44.32527821 40.81822356 -44.32527821 40.81822356 -41.5078125 40.49609375 C-40.42113281 40.18671875 -39.33445312 39.87734375 -38.21484375 39.55859375 C-37.48604004 39.38070312 -36.75723633 39.2028125 -36.00634766 39.01953125 C-29.86124256 37.37852993 -23.63159237 35.3054278 -19.21484375 30.55859375 C-16.47505355 23.51658249 -16.59034762 15.74457765 -16.75634766 8.27832031 C-14.96639822 -0.71177738 -7.4476929 -0.13866764 0 0 Z " fill="#1E8BE8" transform="translate(342.21484375,510.44140625)"/>
<path d="M0 0 C13.79603272 11.4010614 24.18066713 25.68478724 27.3125 43.6875 C28.98185492 63.09075354 26.51282459 81.46958974 13.6953125 96.95703125 C1.56587777 110.90609376 -15.10224205 121.38633202 -33.87207031 122.85888672 C-52.55660416 123.94771999 -71.0817323 119.0966334 -85.6184082 106.86010742 C-99.25136268 94.55267113 -107.7227919 78.26201311 -108.94140625 59.8515625 C-109.68617437 40.30875658 -103.74506983 23.41911725 -90.6875 8.6875 C-90.16800781 8.07390625 -89.64851563 7.4603125 -89.11328125 6.828125 C-66.35603476 -18.16472001 -26.420879 -19.67899953 0 0 Z " fill="#FEFEFE" transform="translate(399.6875,603.3125)"/>
<path d="M0 0 C1.35091081 -0.0033709 2.70181865 -0.0082258 4.05271912 -0.01449585 C6.87813309 -0.02185211 9.7027546 -0.01120234 12.52807617 0.01220703 C16.14565475 0.04072398 19.76138097 0.02426823 23.37889194 -0.00565529 C26.16629449 -0.02374017 28.9532591 -0.01796582 31.74067497 -0.00501633 C33.7215432 -0.00007104 35.70242862 -0.01522441 37.6832428 -0.03067017 C39.49048073 -0.00702896 39.49048073 -0.00702896 41.33422852 0.01708984 C42.39392349 0.02106781 43.45361847 0.02504578 44.54542542 0.02914429 C47.30859375 0.6640625 47.30859375 0.6640625 49.61949158 2.95449829 C52.13205679 6.98501633 52.44823532 10.44290334 52.69459534 15.14044189 C52.75486908 16.25346176 52.81514282 17.36648163 52.87724304 18.51322937 C52.97003288 20.33827751 52.97003288 20.33827751 53.06469727 22.20019531 C53.13311829 23.48515396 53.20153931 24.77011261 53.27203369 26.0940094 C53.4594657 29.61674173 53.64197363 33.13971361 53.82349133 36.66275501 C54.01443168 40.35471209 54.20950994 44.04645073 54.40403748 47.73822021 C54.73030506 53.94204084 55.05350586 60.14601529 55.37475586 66.35009766 C55.74551047 73.509755 56.12046142 80.66918262 56.49782807 87.82849431 C56.8613355 94.72575447 57.22243896 101.62313824 57.58225822 108.52059174 C57.73509539 111.45023864 57.88865612 114.37984627 58.04278755 117.30942535 C58.25832646 121.40960646 58.47029479 125.50996477 58.68188477 129.61035156 C58.77771095 131.42325432 58.77771095 131.42325432 58.87547302 133.27278137 C59.7384644 150.16041077 59.7384644 150.16041077 57.55615234 152.71728516 C56.73969238 153.2076123 55.92323242 153.69793945 55.08203125 154.203125 C54.16389648 154.77321289 53.24576172 155.34330078 52.29980469 155.93066406 C51.31270508 156.50268555 50.32560547 157.07470703 49.30859375 157.6640625 C48.34985352 158.24897461 47.39111328 158.83388672 46.40332031 159.43652344 C43.26552931 161.33762552 40.10309478 163.1913525 36.93359375 165.0390625 C34.5336081 166.44789547 32.13581034 167.86042889 29.73828125 169.2734375 C28.82036804 169.81389206 28.82036804 169.81389206 27.88391113 170.36526489 C21.2406546 174.28253829 14.646353 178.27936601 8.05859375 182.2890625 C7.48220154 182.63973785 6.90580933 182.99041321 6.31195068 183.35171509 C3.44422012 185.09673201 0.57734998 186.8431502 -2.2890625 188.59033203 C-5.71385229 190.67774338 -9.13992746 192.76301874 -12.56640625 194.84765625 C-17.94225143 198.11840482 -23.3172176 201.39059287 -28.69140625 204.6640625 C-30.19038919 201.66609662 -29.63711837 199.09564848 -29.45703125 195.7578125 C-29.41942688 195.03093231 -29.38182251 194.30405212 -29.34307861 193.55514526 C-29.21436927 191.09114764 -29.07784604 188.6276433 -28.94140625 186.1640625 C-28.84778679 184.40448725 -28.75470245 182.64488346 -28.66210938 180.88525391 C-28.45612719 176.98099038 -28.24724294 173.07689371 -28.03710938 169.17285156 C-27.66235495 162.16805337 -27.30924506 155.16221212 -26.95703125 148.15625 C-24.73282337 104.06432521 -24.73282337 104.06432521 -23.46313477 86.35522461 C-22.34118527 70.31331512 -21.57698343 54.2479167 -20.74414062 38.18896484 C-20.68202896 37.0016124 -20.6199173 35.81425995 -20.55592346 34.59092712 C-20.4395327 32.36375739 -20.32446512 30.1365179 -20.21104431 27.90919495 C-20.10401554 25.86378638 -19.98853546 23.81879987 -19.86398315 21.77438354 C-19.74200199 19.57594005 -19.6584182 17.3752069 -19.6020813 15.17410278 C-19.40748224 10.37251742 -19.22492799 6.68653772 -16.98461914 2.39306641 C-11.54268937 -0.46405767 -6.05043109 -0.04725301 0 0 Z " fill="#1E8BE8" transform="translate(594.69140625,293.3359375)"/>
<path d="M0 0 C21.18182527 4.18381367 41.58289079 7.98946023 62.68783569 1.45373535 C65.94164996 0.57559752 68.57793389 0.34001089 71.93002319 0.57873535 C73.51475886 2.16347102 73.17665073 3.75567533 73.24252319 5.95373535 C73.1639897 12.08807402 71.41903885 17.02331482 68.93002319 22.57873535 C68.52912476 23.47592285 68.12822632 24.37311035 67.71517944 25.29748535 C60.29302627 40.27087262 48.15809662 50.45566537 32.43783569 55.85217285 C17.29250954 60.24007108 1.66457223 57.22699303 -13.50747681 54.57873535 C-37.13035701 50.49677789 -56.60213273 48.34115907 -77.48403931 62.32092285 C-80.06997681 63.57873535 -80.06997681 63.57873535 -82.78091431 63.39904785 C-85.06997681 62.57873535 -85.06997681 62.57873535 -87.06997681 60.57873535 C-88.73971447 45.39577196 -84.07076268 31.11398996 -74.82144165 18.93469238 C-55.02163668 -5.31662494 -28.5099699 -5.68936304 0 0 Z " fill="#1E8BE8" transform="translate(672.0699768066406,199.4212646484375)"/>
<path d="M0 0 C1.25472107 0.00607269 1.25472107 0.00607269 2.53479004 0.01226807 C3.39286255 0.01035461 4.25093506 0.00844116 5.13500977 0.00646973 C6.95072726 0.00510763 8.76645449 0.00880579 10.58215332 0.01715088 C13.36736854 0.02785015 16.15193872 0.01725653 18.93713379 0.00445557 C20.69885397 0.00577716 22.46057374 0.00833954 24.22229004 0.01226807 C25.05877075 0.0082196 25.89525146 0.00417114 26.75708008 0 C32.6486217 0.04797473 32.6486217 0.04797473 34.87854004 2.27789307 C35.09090896 5.25577722 35.18249653 8.13825354 35.17932129 11.11773682 C35.18360641 11.9956337 35.18789154 12.87353058 35.19230652 13.7780304 C35.19805504 15.63661842 35.19854625 17.49522894 35.19421387 19.3538208 C35.19105639 22.20064639 35.21449741 25.04643064 35.23986816 27.89312744 C35.24214132 29.69716259 35.24284458 31.50120053 35.24182129 33.30523682 C35.25103104 34.15843002 35.26024078 35.01162323 35.26972961 35.89067078 C35.22322026 41.8204444 35.22322026 41.8204444 33.57913208 44.00242615 C30.70144719 46.16072855 27.30887179 45.70397968 23.85119629 45.67633057 C23.06587021 45.67920074 22.28054413 45.68207092 21.47142029 45.68502808 C19.81130248 45.68706851 18.15116062 45.68154004 16.49108887 45.66900635 C13.9536743 45.6529729 11.41785769 45.66884365 8.88049316 45.68804932 C7.26655736 45.68606646 5.65262256 45.6822219 4.03869629 45.67633057 C2.90259666 45.68543961 2.90259666 45.68543961 1.74354553 45.69473267 C-1.25744931 45.65480529 -3.79587588 45.40440409 -6.60266113 44.31378174 C-9.1158794 40.94491385 -8.65122021 37.39117168 -8.58239746 33.30523682 C-8.58148102 32.42638321 -8.58056458 31.5475296 -8.57962036 30.64204407 C-8.57358035 28.78517248 -8.55782228 26.92831082 -8.53308105 25.07159424 C-8.49655339 22.22267958 -8.49206176 19.37506437 -8.49255371 16.52593994 C-8.48272348 14.72319428 -8.47106689 12.92045746 -8.45739746 11.11773682 C-8.45517181 10.26251938 -8.45294617 9.40730194 -8.45065308 8.52616882 C-8.33335126 1.25442806 -7.30000207 0.0594438 0 0 Z " fill="#FCFDFE" transform="translate(710.1214599609375,573.7221069335938)"/>
<path d="M0 0 C0.85948746 -0.0033284 1.71897491 -0.0066568 2.60450745 -0.01008606 C4.42619286 -0.01515895 6.24788761 -0.01749427 8.06958008 -0.01733398 C10.86359915 -0.01951928 13.65722282 -0.03766769 16.45117188 -0.05664062 C18.21744656 -0.05957465 19.98372313 -0.06155939 21.75 -0.0625 C23.00942665 -0.07327827 23.00942665 -0.07327827 24.29429626 -0.08427429 C30.21258444 -0.06085306 30.21258444 -0.06085306 32.44140625 2.16796875 C32.65377517 5.14585291 32.74536274 8.02832922 32.7421875 11.0078125 C32.74647263 11.88570938 32.75075775 12.76360626 32.75517273 13.66810608 C32.76092125 15.5266941 32.76141246 17.38530462 32.75708008 19.24389648 C32.75392261 22.09072207 32.77736362 24.93650632 32.80273438 27.78320312 C32.80500753 29.58723827 32.80571079 31.39127621 32.8046875 33.1953125 C32.81389725 34.04850571 32.82310699 34.90169891 32.83259583 35.78074646 C32.78609133 41.7099009 32.78609133 41.7099009 31.14299011 43.89349365 C28.25593319 46.05588026 24.84465742 45.57310723 21.37890625 45.53125 C20.19735962 45.53199776 20.19735962 45.53199776 18.99194336 45.53276062 C17.32761104 45.53042157 15.66327509 45.52070291 13.99902344 45.50415039 C11.45085026 45.48055619 8.90372341 45.48359061 6.35546875 45.49023438 C4.73827501 45.4846575 3.12108568 45.47754756 1.50390625 45.46875 C0.3600647 45.47011711 0.3600647 45.47011711 -0.80688477 45.47151184 C-4.58668789 45.42082636 -6.33689914 45.31576516 -9.55859375 43.16796875 C-9.92608643 41.33970642 -9.92608643 41.33970642 -9.91503906 39.10131836 C-9.91804016 38.26382553 -9.92104126 37.4263327 -9.9241333 36.5634613 C-9.9117865 35.6582222 -9.8994397 34.75298309 -9.88671875 33.8203125 C-9.88484558 32.89328018 -9.88297241 31.96624786 -9.88104248 31.01112366 C-9.87431398 29.04994108 -9.86038373 27.0887721 -9.83984375 25.12768555 C-9.80868501 22.11429477 -9.79887427 19.10142651 -9.79296875 16.08789062 C-9.78379935 14.18619149 -9.77342378 12.28449771 -9.76171875 10.3828125 C-9.75746887 9.47554916 -9.75321899 8.56828583 -9.74884033 7.63352966 C-9.65005498 -0.94521186 -7.85342239 0.01038384 0 0 Z " fill="#FCFDFE" transform="translate(633.55859375,573.83203125)"/>
<path d="M0 0 C0.83961777 0.00718552 1.67923553 0.01437103 2.54429626 0.02177429 C3.83496254 0.02246162 3.83496254 0.02246162 5.15170288 0.02316284 C6.97162758 0.02618599 8.79154968 0.03407416 10.61143494 0.0464325 C13.40750726 0.06469157 16.20324868 0.0669422 18.99937439 0.06669617 C20.76435123 0.07161114 22.52932581 0.07743937 24.29429626 0.08427429 C25.13593826 0.08538712 25.97758026 0.08649994 26.84472656 0.08764648 C32.73684296 0.13619599 32.73684296 0.13619599 33.85289001 1.25224304 C33.96649294 4.33135964 34.01708106 7.3871977 34.02085876 10.46708679 C34.02585136 11.85620018 34.02585136 11.85620018 34.03094482 13.27337646 C34.03601809 15.23629762 34.03835303 17.19922744 34.03819275 19.16215515 C34.04037819 22.17344815 34.05852676 25.18437438 34.07749939 28.19560242 C34.08043337 30.09859595 34.08241814 32.00159123 34.08335876 33.90458679 C34.09054428 34.8098259 34.0977298 35.715065 34.10513306 36.6477356 C34.10205643 37.48522842 34.0989798 38.32272125 34.09580994 39.18559265 C34.09723495 39.92426071 34.09865997 40.66292877 34.10012817 41.42398071 C33.85289001 43.25224304 33.85289001 43.25224304 31.85289001 45.25224304 C29.09128605 45.46435504 26.43250949 45.55621379 23.66929626 45.55302429 C22.85798752 45.55730942 22.04667877 45.56159454 21.21078491 45.56600952 C19.49343296 45.57175704 17.77605666 45.57224998 16.05870056 45.56791687 C13.42912781 45.56475954 10.80068271 45.58820052 8.17124939 45.61357117 C6.5039331 45.61584437 4.83661379 45.61654756 3.16929626 45.61552429 C2.3817244 45.62473404 1.59415253 45.63394379 0.78271484 45.64343262 C-4.68494371 45.597039 -4.68494371 45.597039 -6.85542297 43.97776794 C-9.16465134 40.89294088 -8.55041728 36.98760919 -8.51039124 33.27958679 C-8.51088974 32.40073318 -8.51138824 31.52187958 -8.51190186 30.61639404 C-8.50956216 28.75955442 -8.49983978 26.90271157 -8.48329163 25.04594421 C-8.45967103 22.19710587 -8.46273479 19.34920146 -8.46937561 16.50028992 C-8.46379983 14.69754994 -8.45669057 12.89481392 -8.44789124 11.09208679 C-8.44880264 10.23686935 -8.44971405 9.38165192 -8.45065308 8.5005188 C-8.36274991 1.20604159 -7.31796595 0.02896036 0 0 Z " fill="#FCFDFE" transform="translate(551.1471099853516,573.7477569580078)"/>
<path d="M0 0 C0.33 0 0.66 0 1 0 C1.99 3.96 2.98 7.92 4 12 C5.32 12.33 6.64 12.66 8 13 C5.6875 13.6875 5.6875 13.6875 3 14 C1.34375 12.875 1.34375 12.875 0 11 C-0.29296875 8.30078125 -0.29296875 8.30078125 -0.1875 5.3125 C-0.16042969 4.31863281 -0.13335938 3.32476562 -0.10546875 2.30078125 C-0.07066406 1.54152344 -0.03585937 0.78226563 0 0 Z " fill="#0D79E5" transform="translate(585,249)"/>
<path d="M0 0 C3.375 4.5 3.375 4.5 3.1875 8.75 C3.16042969 9.54921875 3.13335938 10.3484375 3.10546875 11.171875 C3.07066406 11.77515625 3.03585937 12.3784375 3 13 C2.01 13 1.02 13 0 13 C0 8.71 0 4.42 0 0 Z " fill="#2992E9" transform="translate(646,339)"/>
<path d="M0 0 C0.66 0.33 1.32 0.66 2 1 C0.97407374 4.07777878 0.24530756 4.84450474 -2 7 C-2.66 7.99 -3.32 8.98 -4 10 C-4.41176754 6.39703406 -4.1535853 5.21597933 -2 2.1875 C-1.34 1.465625 -0.68 0.74375 0 0 Z " fill="#117CE6" transform="translate(366,481)"/>
<path d="M0 0 C0.33 0 0.66 0 1 0 C1.29296875 6.0546875 1.29296875 6.0546875 1 8 C0.01 8.66 -0.98 9.32 -2 10 C-2.25 3.375 -2.25 3.375 0 0 Z " fill="#2990E9" transform="translate(569,453)"/>
</svg>
